<svg xmlns="http://www.w3.org/2000/svg" height="300" width="300"><rect x="34" y="34" height="8" width="8" fill="#000000"/><rect x="42" y="34" height="8" width="8" fill="#000000"/><rect x="50" y="34" height="8" width="8" fill="#000000"/><rect x="58" y="34" height="8" width="8" fill="#000000"/><rect x="66" y="34" height="8" width="8" fill="#000000"/><rect x="74" y="34" height="8" width="8" fill="#000000"/><rect x="82" y="34" height="8" width="8" fill="#000000"/><rect x="114" y="34" height="8" width="8" fill="#000000"/><rect x="130" y="34" height="8" width="8" fill="#000000"/><rect x="146" y="34" height="8" width="8" fill="#000000"/><rect x="186" y="34" height="8" width="8" fill="#000000"/><rect x="210" y="34" height="8" width="8" fill="#000000"/><rect x="218" y="34" height="8" width="8" fill="#000000"/><rect x="226" y="34" height="8" width="8" fill="#000000"/><rect x="234" y="34" height="8" width="8" fill="#000000"/><rect x="242" y="34" height="8" width="8" fill="#000000"/><rect x="250" y="34" height="8" width="8" fill="#000000"/><rect x="258" y="34" height="8" width="8" fill="#000000"/><rect x="34" y="42" height="8" width="8" fill="#000000"/><rect x="82" y="42" height="8" width="8" fill="#000000"/><rect x="98" y="42" height="8" width="8" fill="#000000"/><rect x="114" y="42" height="8" width="8" fill="#000000"/><rect x="146" y="42" height="8" width="8" fill="#000000"/><rect x="154" y="42" height="8" width="8" fill="#000000"/><rect x="162" y="42" height="8" width="8" fill="#000000"/><rect x="170" y="42" height="8" width="8" fill="#000000"/><rect x="178" y="42" height="8" width="8" fill="#000000"/><rect x="210" y="42" height="8" width="8" fill="#000000"/><rect x="258" y="42" height="8" width="8" fill="#000000"/><rect x="34" y="50" height="8" width="8" fill="#000000"/><rect x="50" y="50" height="8" width="8" fill="#000000"/><rect x="58" y="50" height="8" width="8" fill="#000000"/><rect x="66" y="50" height="8" width="8" fill="#000000"/><rect x="82" y="50" height="8" width="8" fill="#000000"/><rect x="130" y="50" height="8" width="8" fill="#000000"/><rect x="146" y="50" height="8" width="8" fill="#000000"/><rect x="154" y="50" height="8" width="8" fill="#000000"/><rect x="178" y="50" height="8" width="8" fill="#000000"/><rect x="194" y="50" height="8" width="8" fill="#000000"/><rect x="210" y="50" height="8" width="8" fill="#000000"/><rect x="226" y="50" height="8" width="8" fill="#000000"/><rect x="234" y="50" height="8" width="8" fill="#000000"/><rect x="242" y="50" height="8" width="8" fill="#000000"/><rect x="258" y="50" height="8" width="8" fill="#000000"/><rect x="34" y="58" height="8" width="8" fill="#000000"/><rect x="50" y="58" height="8" width="8" fill="#000000"/><rect x="58" y="58" height="8" width="8" fill="#000000"/><rect x="66" y="58" height="8" width="8" fill="#000000"/><rect x="82" y="58" height="8" width="8" fill="#000000"/><rect x="98" y="58" height="8" width="8" fill="#000000"/><rect x="106" y="58" height="8" width="8" fill="#000000"/><rect x="114" y="58" height="8" width="8" fill="#000000"/><rect x="130" y="58" height="8" width="8" fill="#000000"/><rect x="146" y="58" height="8" width="8" fill="#000000"/><rect x="154" y="58" height="8" width="8" fill="#000000"/><rect x="162" y="58" height="8" width="8" fill="#000000"/><rect x="194" y="58" height="8" width="8" fill="#000000"/><rect x="210" y="58" height="8" width="8" fill="#000000"/><rect x="226" y="58" height="8" width="8" fill="#000000"/><rect x="234" y="58" height="8" width="8" fill="#000000"/><rect x="242" y="58" height="8" width="8" fill="#000000"/><rect x="258" y="58" height="8" width="8" fill="#000000"/><rect x="34" y="66" height="8" width="8" fill="#000000"/><rect x="50" y="66" height="8" width="8" fill="#000000"/><rect x="58" y="66" height="8" width="8" fill="#000000"/><rect x="66" y="66" height="8" width="8" fill="#000000"/><rect x="82" y="66" height="8" width="8" fill="#000000"/><rect x="106" y="66" height="8" width="8" fill="#000000"/><rect x="178" y="66" height="8" width="8" fill="#000000"/><rect x="186" y="66" height="8" width="8" fill="#000000"/><rect x="210" y="66" height="8" width="8" fill="#000000"/><rect x="226" y="66" height="8" width="8" fill="#000000"/><rect x="234" y="66" height="8" width="8" fill="#000000"/><rect x="242" y="66" height="8" width="8" fill="#000000"/><rect x="258" y="66" height="8" width="8" fill="#000000"/><rect x="34" y="74" height="8" width="8" fill="#000000"/><rect x="82" y="74" height="8" width="8" fill="#000000"/><rect x="98" y="74" height="8" width="8" fill="#000000"/><rect x="106" y="74" height="8" width="8" fill="#000000"/><rect x="122" y="74" height="8" width="8" fill="#000000"/><rect x="130" y="74" height="8" width="8" fill="#000000"/><rect x="146" y="74" height="8" width="8" fill="#000000"/><rect x="154" y="74" height="8" width="8" fill="#000000"/><rect x="162" y="74" height="8" width="8" fill="#000000"/><rect x="194" y="74" height="8" width="8" fill="#000000"/><rect x="210" y="74" height="8" width="8" fill="#000000"/><rect x="258" y="74" height="8" width="8" fill="#000000"/><rect x="34" y="82" height="8" width="8" fill="#000000"/><rect x="42" y="82" height="8" width="8" fill="#000000"/><rect x="50" y="82" height="8" width="8" fill="#000000"/><rect x="58" y="82" height="8" width="8" fill="#000000"/><rect x="66" y="82" height="8" width="8" fill="#000000"/><rect x="74" y="82" height="8" width="8" fill="#000000"/><rect x="82" y="82" height="8" width="8" fill="#000000"/><rect x="98" y="82" height="8" width="8" fill="#000000"/><rect x="114" y="82" height="8" width="8" fill="#000000"/><rect x="130" y="82" height="8" width="8" fill="#000000"/><rect x="146" y="82" height="8" width="8" fill="#000000"/><rect x="162" y="82" height="8" width="8" fill="#000000"/><rect x="178" y="82" height="8" width="8" fill="#000000"/><rect x="194" y="82" height="8" width="8" fill="#000000"/><rect x="210" y="82" height="8" width="8" fill="#000000"/><rect x="218" y="82" height="8" width="8" fill="#000000"/><rect x="226" y="82" height="8" width="8" fill="#000000"/><rect x="234" y="82" height="8" width="8" fill="#000000"/><rect x="242" y="82" height="8" width="8" fill="#000000"/><rect x="250" y="82" height="8" width="8" fill="#000000"/><rect x="258" y="82" height="8" width="8" fill="#000000"/><rect x="106" y="90" height="8" width="8" fill="#000000"/><rect x="114" y="90" height="8" width="8" fill="#000000"/><rect x="122" y="90" height="8" width="8" fill="#000000"/><rect x="162" y="90" height="8" width="8" fill="#000000"/><rect x="186" y="90" height="8" width="8" fill="#000000"/><rect x="34" y="98" height="8" width="8" fill="#000000"/><rect x="42" y="98" height="8" width="8" fill="#000000"/><rect x="50" y="98" height="8" width="8" fill="#000000"/><rect x="58" y="98" height="8" width="8" fill="#000000"/><rect x="66" y="98" height="8" width="8" fill="#000000"/><rect x="82" y="98" height="8" width="8" fill="#000000"/><rect x="90" y="98" height="8" width="8" fill="#000000"/><rect x="98" y="98" height="8" width="8" fill="#000000"/><rect x="106" y="98" height="8" width="8" fill="#000000"/><rect x="122" y="98" height="8" width="8" fill="#000000"/><rect x="138" y="98" height="8" width="8" fill="#000000"/><rect x="154" y="98" height="8" width="8" fill="#000000"/><rect x="162" y="98" height="8" width="8" fill="#000000"/><rect x="170" y="98" height="8" width="8" fill="#000000"/><rect x="178" y="98" height="8" width="8" fill="#000000"/><rect x="202" y="98" height="8" width="8" fill="#000000"/><rect x="218" y="98" height="8" width="8" fill="#000000"/><rect x="234" y="98" height="8" width="8" fill="#000000"/><rect x="250" y="98" height="8" width="8" fill="#000000"/><rect x="34" y="106" height="8" width="8" fill="#000000"/><rect x="42" y="106" height="8" width="8" fill="#000000"/><rect x="50" y="106" height="8" width="8" fill="#000000"/><rect x="74" y="106" height="8" width="8" fill="#000000"/><rect x="114" y="106" height="8" width="8" fill="#000000"/><rect x="130" y="106" height="8" width="8" fill="#000000"/><rect x="146" y="106" height="8" width="8" fill="#000000"/><rect x="194" y="106" height="8" width="8" fill="#000000"/><rect x="202" y="106" height="8" width="8" fill="#000000"/><rect x="218" y="106" height="8" width="8" fill="#000000"/><rect x="226" y="106" height="8" width="8" fill="#000000"/><rect x="250" y="106" height="8" width="8" fill="#000000"/><rect x="74" y="114" height="8" width="8" fill="#000000"/><rect x="82" y="114" height="8" width="8" fill="#000000"/><rect x="90" y="114" height="8" width="8" fill="#000000"/><rect x="114" y="114" height="8" width="8" fill="#000000"/><rect x="146" y="114" height="8" width="8" fill="#000000"/><rect x="154" y="114" height="8" width="8" fill="#000000"/><rect x="170" y="114" height="8" width="8" fill="#000000"/><rect x="194" y="114" height="8" width="8" fill="#000000"/><rect x="202" y="114" height="8" width="8" fill="#000000"/><rect x="218" y="114" height="8" width="8" fill="#000000"/><rect x="234" y="114" height="8" width="8" fill="#000000"/><rect x="34" y="122" height="8" width="8" fill="#000000"/><rect x="50" y="122" height="8" width="8" fill="#000000"/><rect x="66" y="122" height="8" width="8" fill="#000000"/><rect x="74" y="122" height="8" width="8" fill="#000000"/><rect x="90" y="122" height="8" width="8" fill="#000000"/><rect x="130" y="122" height="8" width="8" fill="#000000"/><rect x="154" y="122" height="8" width="8" fill="#000000"/><rect x="162" y="122" height="8" width="8" fill="#000000"/><rect x="178" y="122" height="8" width="8" fill="#000000"/><rect x="218" y="122" height="8" width="8" fill="#000000"/><rect x="226" y="122" height="8" width="8" fill="#000000"/><rect x="250" y="122" height="8" width="8" fill="#000000"/><rect x="34" y="130" height="8" width="8" fill="#000000"/><rect x="42" y="130" height="8" width="8" fill="#000000"/><rect x="50" y="130" height="8" width="8" fill="#000000"/><rect x="58" y="130" height="8" width="8" fill="#000000"/><rect x="66" y="130" height="8" width="8" fill="#000000"/><rect x="74" y="130" height="8" width="8" fill="#000000"/><rect x="82" y="130" height="8" width="8" fill="#000000"/><rect x="98" y="130" height="8" width="8" fill="#000000"/><rect x="106" y="130" height="8" width="8" fill="#000000"/><rect x="114" y="130" height="8" width="8" fill="#000000"/><rect x="130" y="130" height="8" width="8" fill="#000000"/><rect x="138" y="130" height="8" width="8" fill="#000000"/><rect x="154" y="130" height="8" width="8" fill="#000000"/><rect x="162" y="130" height="8" width="8" fill="#000000"/><rect x="170" y="130" height="8" width="8" fill="#000000"/><rect x="178" y="130" height="8" width="8" fill="#000000"/><rect x="202" y="130" height="8" width="8" fill="#000000"/><rect x="218" y="130" height="8" width="8" fill="#000000"/><rect x="234" y="130" height="8" width="8" fill="#000000"/><rect x="242" y="130" height="8" width="8" fill="#000000"/><rect x="250" y="130" height="8" width="8" fill="#000000"/><rect x="50" y="138" height="8" width="8" fill="#000000"/><rect x="66" y="138" height="8" width="8" fill="#000000"/><rect x="98" y="138" height="8" width="8" fill="#000000"/><rect x="146" y="138" height="8" width="8" fill="#000000"/><rect x="194" y="138" height="8" width="8" fill="#000000"/><rect x="210" y="138" height="8" width="8" fill="#000000"/><rect x="226" y="138" height="8" width="8" fill="#000000"/><rect x="258" y="138" height="8" width="8" fill="#000000"/><rect x="42" y="146" height="8" width="8" fill="#000000"/><rect x="66" y="146" height="8" width="8" fill="#000000"/><rect x="74" y="146" height="8" width="8" fill="#000000"/><rect x="82" y="146" height="8" width="8" fill="#000000"/><rect x="90" y="146" height="8" width="8" fill="#000000"/><rect x="114" y="146" height="8" width="8" fill="#000000"/><rect x="122" y="146" height="8" width="8" fill="#000000"/><rect x="130" y="146" height="8" width="8" fill="#000000"/><rect x="146" y="146" height="8" width="8" fill="#000000"/><rect x="154" y="146" height="8" width="8" fill="#000000"/><rect x="170" y="146" height="8" width="8" fill="#000000"/><rect x="178" y="146" height="8" width="8" fill="#000000"/><rect x="202" y="146" height="8" width="8" fill="#000000"/><rect x="210" y="146" height="8" width="8" fill="#000000"/><rect x="218" y="146" height="8" width="8" fill="#000000"/><rect x="226" y="146" height="8" width="8" fill="#000000"/><rect x="250" y="146" height="8" width="8" fill="#000000"/><rect x="34" y="154" height="8" width="8" fill="#000000"/><rect x="50" y="154" height="8" width="8" fill="#000000"/><rect x="66" y="154" height="8" width="8" fill="#000000"/><rect x="74" y="154" height="8" width="8" fill="#000000"/><rect x="90" y="154" height="8" width="8" fill="#000000"/><rect x="98" y="154" height="8" width="8" fill="#000000"/><rect x="106" y="154" height="8" width="8" fill="#000000"/><rect x="114" y="154" height="8" width="8" fill="#000000"/><rect x="122" y="154" height="8" width="8" fill="#000000"/><rect x="146" y="154" height="8" width="8" fill="#000000"/><rect x="154" y="154" height="8" width="8" fill="#000000"/><rect x="162" y="154" height="8" width="8" fill="#000000"/><rect x="178" y="154" height="8" width="8" fill="#000000"/><rect x="186" y="154" height="8" width="8" fill="#000000"/><rect x="194" y="154" height="8" width="8" fill="#000000"/><rect x="226" y="154" height="8" width="8" fill="#000000"/><rect x="250" y="154" height="8" width="8" fill="#000000"/><rect x="50" y="162" height="8" width="8" fill="#000000"/><rect x="58" y="162" height="8" width="8" fill="#000000"/><rect x="66" y="162" height="8" width="8" fill="#000000"/><rect x="74" y="162" height="8" width="8" fill="#000000"/><rect x="82" y="162" height="8" width="8" fill="#000000"/><rect x="98" y="162" height="8" width="8" fill="#000000"/><rect x="122" y="162" height="8" width="8" fill="#000000"/><rect x="146" y="162" height="8" width="8" fill="#000000"/><rect x="154" y="162" height="8" width="8" fill="#000000"/><rect x="162" y="162" height="8" width="8" fill="#000000"/><rect x="170" y="162" height="8" width="8" fill="#000000"/><rect x="178" y="162" height="8" width="8" fill="#000000"/><rect x="194" y="162" height="8" width="8" fill="#000000"/><rect x="218" y="162" height="8" width="8" fill="#000000"/><rect x="234" y="162" height="8" width="8" fill="#000000"/><rect x="242" y="162" height="8" width="8" fill="#000000"/><rect x="250" y="162" height="8" width="8" fill="#000000"/><rect x="258" y="162" height="8" width="8" fill="#000000"/><rect x="34" y="170" height="8" width="8" fill="#000000"/><rect x="66" y="170" height="8" width="8" fill="#000000"/><rect x="90" y="170" height="8" width="8" fill="#000000"/><rect x="98" y="170" height="8" width="8" fill="#000000"/><rect x="114" y="170" height="8" width="8" fill="#000000"/><rect x="130" y="170" height="8" width="8" fill="#000000"/><rect x="186" y="170" height="8" width="8" fill="#000000"/><rect x="202" y="170" height="8" width="8" fill="#000000"/><rect x="226" y="170" height="8" width="8" fill="#000000"/><rect x="234" y="170" height="8" width="8" fill="#000000"/><rect x="258" y="170" height="8" width="8" fill="#000000"/><rect x="34" y="178" height="8" width="8" fill="#000000"/><rect x="50" y="178" height="8" width="8" fill="#000000"/><rect x="58" y="178" height="8" width="8" fill="#000000"/><rect x="66" y="178" height="8" width="8" fill="#000000"/><rect x="82" y="178" height="8" width="8" fill="#000000"/><rect x="90" y="178" height="8" width="8" fill="#000000"/><rect x="98" y="178" height="8" width="8" fill="#000000"/><rect x="106" y="178" height="8" width="8" fill="#000000"/><rect x="138" y="178" height="8" width="8" fill="#000000"/><rect x="154" y="178" height="8" width="8" fill="#000000"/><rect x="162" y="178" height="8" width="8" fill="#000000"/><rect x="178" y="178" height="8" width="8" fill="#000000"/><rect x="218" y="178" height="8" width="8" fill="#000000"/><rect x="234" y="178" height="8" width="8" fill="#000000"/><rect x="34" y="186" height="8" width="8" fill="#000000"/><rect x="74" y="186" height="8" width="8" fill="#000000"/><rect x="106" y="186" height="8" width="8" fill="#000000"/><rect x="130" y="186" height="8" width="8" fill="#000000"/><rect x="146" y="186" height="8" width="8" fill="#000000"/><rect x="154" y="186" height="8" width="8" fill="#000000"/><rect x="178" y="186" height="8" width="8" fill="#000000"/><rect x="194" y="186" height="8" width="8" fill="#000000"/><rect x="202" y="186" height="8" width="8" fill="#000000"/><rect x="226" y="186" height="8" width="8" fill="#000000"/><rect x="250" y="186" height="8" width="8" fill="#000000"/><rect x="34" y="194" height="8" width="8" fill="#000000"/><rect x="66" y="194" height="8" width="8" fill="#000000"/><rect x="74" y="194" height="8" width="8" fill="#000000"/><rect x="82" y="194" height="8" width="8" fill="#000000"/><rect x="106" y="194" height="8" width="8" fill="#000000"/><rect x="130" y="194" height="8" width="8" fill="#000000"/><rect x="138" y="194" height="8" width="8" fill="#000000"/><rect x="162" y="194" height="8" width="8" fill="#000000"/><rect x="194" y="194" height="8" width="8" fill="#000000"/><rect x="202" y="194" height="8" width="8" fill="#000000"/><rect x="210" y="194" height="8" width="8" fill="#000000"/><rect x="218" y="194" height="8" width="8" fill="#000000"/><rect x="226" y="194" height="8" width="8" fill="#000000"/><rect x="234" y="194" height="8" width="8" fill="#000000"/><rect x="242" y="194" height="8" width="8" fill="#000000"/><rect x="250" y="194" height="8" width="8" fill="#000000"/><rect x="98" y="202" height="8" width="8" fill="#000000"/><rect x="106" y="202" height="8" width="8" fill="#000000"/><rect x="114" y="202" height="8" width="8" fill="#000000"/><rect x="138" y="202" height="8" width="8" fill="#000000"/><rect x="146" y="202" height="8" width="8" fill="#000000"/><rect x="178" y="202" height="8" width="8" fill="#000000"/><rect x="186" y="202" height="8" width="8" fill="#000000"/><rect x="194" y="202" height="8" width="8" fill="#000000"/><rect x="226" y="202" height="8" width="8" fill="#000000"/><rect x="258" y="202" height="8" width="8" fill="#000000"/><rect x="34" y="210" height="8" width="8" fill="#000000"/><rect x="42" y="210" height="8" width="8" fill="#000000"/><rect x="50" y="210" height="8" width="8" fill="#000000"/><rect x="58" y="210" height="8" width="8" fill="#000000"/><rect x="66" y="210" height="8" width="8" fill="#000000"/><rect x="74" y="210" height="8" width="8" fill="#000000"/><rect x="82" y="210" height="8" width="8" fill="#000000"/><rect x="98" y="210" height="8" width="8" fill="#000000"/><rect x="114" y="210" height="8" width="8" fill="#000000"/><rect x="122" y="210" height="8" width="8" fill="#000000"/><rect x="130" y="210" height="8" width="8" fill="#000000"/><rect x="154" y="210" height="8" width="8" fill="#000000"/><rect x="170" y="210" height="8" width="8" fill="#000000"/><rect x="178" y="210" height="8" width="8" fill="#000000"/><rect x="186" y="210" height="8" width="8" fill="#000000"/><rect x="194" y="210" height="8" width="8" fill="#000000"/><rect x="210" y="210" height="8" width="8" fill="#000000"/><rect x="226" y="210" height="8" width="8" fill="#000000"/><rect x="234" y="210" height="8" width="8" fill="#000000"/><rect x="250" y="210" height="8" width="8" fill="#000000"/><rect x="34" y="218" height="8" width="8" fill="#000000"/><rect x="82" y="218" height="8" width="8" fill="#000000"/><rect x="122" y="218" height="8" width="8" fill="#000000"/><rect x="146" y="218" height="8" width="8" fill="#000000"/><rect x="162" y="218" height="8" width="8" fill="#000000"/><rect x="194" y="218" height="8" width="8" fill="#000000"/><rect x="226" y="218" height="8" width="8" fill="#000000"/><rect x="250" y="218" height="8" width="8" fill="#000000"/><rect x="258" y="218" height="8" width="8" fill="#000000"/><rect x="34" y="226" height="8" width="8" fill="#000000"/><rect x="50" y="226" height="8" width="8" fill="#000000"/><rect x="58" y="226" height="8" width="8" fill="#000000"/><rect x="66" y="226" height="8" width="8" fill="#000000"/><rect x="82" y="226" height="8" width="8" fill="#000000"/><rect x="98" y="226" height="8" width="8" fill="#000000"/><rect x="106" y="226" height="8" width="8" fill="#000000"/><rect x="122" y="226" height="8" width="8" fill="#000000"/><rect x="154" y="226" height="8" width="8" fill="#000000"/><rect x="162" y="226" height="8" width="8" fill="#000000"/><rect x="170" y="226" height="8" width="8" fill="#000000"/><rect x="178" y="226" height="8" width="8" fill="#000000"/><rect x="194" y="226" height="8" width="8" fill="#000000"/><rect x="202" y="226" height="8" width="8" fill="#000000"/><rect x="210" y="226" height="8" width="8" fill="#000000"/><rect x="218" y="226" height="8" width="8" fill="#000000"/><rect x="226" y="226" height="8" width="8" fill="#000000"/><rect x="234" y="226" height="8" width="8" fill="#000000"/><rect x="242" y="226" height="8" width="8" fill="#000000"/><rect x="250" y="226" height="8" width="8" fill="#000000"/><rect x="258" y="226" height="8" width="8" fill="#000000"/><rect x="34" y="234" height="8" width="8" fill="#000000"/><rect x="50" y="234" height="8" width="8" fill="#000000"/><rect x="58" y="234" height="8" width="8" fill="#000000"/><rect x="66" y="234" height="8" width="8" fill="#000000"/><rect x="82" y="234" height="8" width="8" fill="#000000"/><rect x="98" y="234" height="8" width="8" fill="#000000"/><rect x="114" y="234" height="8" width="8" fill="#000000"/><rect x="130" y="234" height="8" width="8" fill="#000000"/><rect x="138" y="234" height="8" width="8" fill="#000000"/><rect x="170" y="234" height="8" width="8" fill="#000000"/><rect x="194" y="234" height="8" width="8" fill="#000000"/><rect x="202" y="234" height="8" width="8" fill="#000000"/><rect x="226" y="234" height="8" width="8" fill="#000000"/><rect x="234" y="234" height="8" width="8" fill="#000000"/><rect x="250" y="234" height="8" width="8" fill="#000000"/><rect x="258" y="234" height="8" width="8" fill="#000000"/><rect x="34" y="242" height="8" width="8" fill="#000000"/><rect x="50" y="242" height="8" width="8" fill="#000000"/><rect x="58" y="242" height="8" width="8" fill="#000000"/><rect x="66" y="242" height="8" width="8" fill="#000000"/><rect x="82" y="242" height="8" width="8" fill="#000000"/><rect x="98" y="242" height="8" width="8" fill="#000000"/><rect x="106" y="242" height="8" width="8" fill="#000000"/><rect x="114" y="242" height="8" width="8" fill="#000000"/><rect x="138" y="242" height="8" width="8" fill="#000000"/><rect x="146" y="242" height="8" width="8" fill="#000000"/><rect x="154" y="242" height="8" width="8" fill="#000000"/><rect x="178" y="242" height="8" width="8" fill="#000000"/><rect x="186" y="242" height="8" width="8" fill="#000000"/><rect x="210" y="242" height="8" width="8" fill="#000000"/><rect x="218" y="242" height="8" width="8" fill="#000000"/><rect x="226" y="242" height="8" width="8" fill="#000000"/><rect x="242" y="242" height="8" width="8" fill="#000000"/><rect x="250" y="242" height="8" width="8" fill="#000000"/><rect x="34" y="250" height="8" width="8" fill="#000000"/><rect x="82" y="250" height="8" width="8" fill="#000000"/><rect x="98" y="250" height="8" width="8" fill="#000000"/><rect x="114" y="250" height="8" width="8" fill="#000000"/><rect x="130" y="250" height="8" width="8" fill="#000000"/><rect x="138" y="250" height="8" width="8" fill="#000000"/><rect x="154" y="250" height="8" width="8" fill="#000000"/><rect x="178" y="250" height="8" width="8" fill="#000000"/><rect x="186" y="250" height="8" width="8" fill="#000000"/><rect x="194" y="250" height="8" width="8" fill="#000000"/><rect x="202" y="250" height="8" width="8" fill="#000000"/><rect x="210" y="250" height="8" width="8" fill="#000000"/><rect x="218" y="250" height="8" width="8" fill="#000000"/><rect x="226" y="250" height="8" width="8" fill="#000000"/><rect x="234" y="250" height="8" width="8" fill="#000000"/><rect x="250" y="250" height="8" width="8" fill="#000000"/><rect x="34" y="258" height="8" width="8" fill="#000000"/><rect x="42" y="258" height="8" width="8" fill="#000000"/><rect x="50" y="258" height="8" width="8" fill="#000000"/><rect x="58" y="258" height="8" width="8" fill="#000000"/><rect x="66" y="258" height="8" width="8" fill="#000000"/><rect x="74" y="258" height="8" width="8" fill="#000000"/><rect x="82" y="258" height="8" width="8" fill="#000000"/><rect x="98" y="258" height="8" width="8" fill="#000000"/><rect x="114" y="258" height="8" width="8" fill="#000000"/><rect x="130" y="258" height="8" width="8" fill="#000000"/><rect x="146" y="258" height="8" width="8" fill="#000000"/><rect x="162" y="258" height="8" width="8" fill="#000000"/><rect x="170" y="258" height="8" width="8" fill="#000000"/><rect x="178" y="258" height="8" width="8" fill="#000000"/><rect x="218" y="258" height="8" width="8" fill="#000000"/><rect x="226" y="258" height="8" width="8" fill="#000000"/><rect x="242" y="258" height="8" width="8" fill="#000000"/></svg>